# xmcd CD database file
#
# Track frame offsets:
#	150
#	21564
#	47557
#	69490
#	89424
#	113258
#	128172
#
# Disc length: 1884 seconds
#
# Revision: 0
# Processed by: cddbd v1.5.1PL2 Copyright (c) Steve Scherf et al.
# Submitted via: CDex 1.51
#
DISCID=55075a07
DTITLE=M.Boyes and G.Maltman - Screamin' Retro: Scream On!
DYEAR=2006
DGENRE=Jazz
TTITLE0=Project 1
TTITLE1=Groove For Dave
TTITLE2=Rip It Up
TTITLE3=It's Just a Cat
TTITLE4=Bones Jones
TTITLE5=Riff Rage
TTITLE6=Break The Limit
EXTD=YEAR: 2006
EXTT0=
EXTT1=
EXTT2=
EXTT3=
EXTT4=
EXTT5=
EXTT6=
PLAYORDER=
